<svg id="Layer_1" data-name="Layer 1" xmlns="http://www.w3.org/2000/svg" viewBox="0 0 341.12 186.8"><title>Logo - Solo [Monochrome]</title><path d="M94.09,5.6c.92.09,1.85.18,2.77.25a70.82,70.82,0,0,1,33.93,11.62c17.09,11.38,27.94,27.2,32.16,47.27,4.49,21.4.35,41.28-11.85,59.46-.1.15-.21.29-.31.45a1.4,1.4,0,0,0-.07.19,4.08,4.08,0,0,0,.44-.07,224.27,224.27,0,0,0,24.18-8c6.35-2.6,12.57-5.6,18.71-8.68a326.19,326.19,0,0,0,51.58-32.42c6-4.6,12.28-8.94,18-13.94,1.49-1.31,3-2.6,4.48-3.89a121.22,121.22,0,0,1,27.17-17.92,41.59,41.59,0,0,1,14.27-4.11c6.89-.61,13.11,1.06,18.4,5.69,3.74,3.28,4.88,7.43,4,12.2-.77,4.26-3.15,7.64-6.05,10.71-.4.42-.81.85-1.27,1.35l-.58-.65a19.7,19.7,0,0,0-11.94-7.07,25.39,25.39,0,0,0-11.06.82,52.58,52.58,0,0,0-11,4.65,110.55,110.55,0,0,0-15.87,10.7c-8.1,6.5-16.07,13.16-24.12,19.73-7,5.75-14.55,10.89-22.08,16-3.37,2.29-6.68,4.65-10.11,6.83a214.36,214.36,0,0,1-26,14.56,302.71,302.71,0,0,1-55.65,19.23,197,197,0,0,1-21.31,3.86,114.84,114.84,0,0,1-21.85.83C74.35,154,57.41,148,42.68,136.2a72.86,72.86,0,0,1-22.63-30,63.25,63.25,0,0,1-4.61-25.36A75.71,75.71,0,0,1,45.32,21.58,74.66,74.66,0,0,1,75.94,7.17a69,69,0,0,1,11-1.45c.29,0,.58-.08.87-.12Zm-1.9,128.68c3.11-.14,6.23-.24,9.34-.4a179.48,179.48,0,0,0,18.62-2.11,257.12,257.12,0,0,0,25.75-5.56,2,2,0,0,0,1-.68q17.52-24.9,13.29-55a72.55,72.55,0,0,0-8.64-25.32A71.86,71.86,0,0,0,88.47,8a48.61,48.61,0,0,0-6.94.37,53.29,53.29,0,0,0-13.66,4.11A72.3,72.3,0,0,0,41.65,32.4,77.25,77.25,0,0,0,26.74,59.28c-3.18,10.09-4.19,20.35-2.09,30.81a48.09,48.09,0,0,0,10.71,22.22c8.16,9.54,18.5,15.6,30.57,18.82A104.63,104.63,0,0,0,92.19,134.28Z" transform="translate(-4.44 -5.6)"/><path d="M4.44,75.05c.13-1.49.25-3,.39-4.47a81,81,0,0,1,7.62-27.21,87.55,87.55,0,0,1,6-10.67,2.91,2.91,0,0,1,.69-.8l-.32.55A83.85,83.85,0,0,0,7.09,60.79a78.6,78.6,0,0,0-1.6,20.47,79.42,79.42,0,0,0,12.22,38.61,86.83,86.83,0,0,0,20.77,22.84,93.6,93.6,0,0,0,35.74,17.41,99.56,99.56,0,0,0,27.89,2.54c7.43-.34,14.84-.91,22.25-1.48,15.56-1.21,30.55-5.07,45.43-9.61,22.22-6.78,42.88-16.89,62.71-28.83,9.65-5.81,18.94-12.15,28-18.88,4.68-3.49,9.4-6.94,14.06-10.45,1.7-1.29,3.27-2.75,5-4.07,2.19-1.73,4.38-3.48,6.66-5.08a124.68,124.68,0,0,1,17.19-10.39,50.17,50.17,0,0,1,15.63-5c6.51-.81,12.58.33,18,4.27a18.41,18.41,0,0,1,6.3,8.95,43.19,43.19,0,0,1,2.34,15.08,57.29,57.29,0,0,1-7.16,27.53,103.6,103.6,0,0,1-20,25.75,142.77,142.77,0,0,1-28.58,21.06,163.52,163.52,0,0,1-45.44,17.57A132.32,132.32,0,0,1,212,192.35a90.23,90.23,0,0,1-30.54-5.67,56.29,56.29,0,0,1-17-10c-.12-.1-.23-.22-.44-.41l1.47-.41a240.42,240.42,0,0,0,25-8.19,1.28,1.28,0,0,1,1,0,55.85,55.85,0,0,0,19.66,7.92A87.49,87.49,0,0,0,235.59,177a125.62,125.62,0,0,0,46.49-13,117,117,0,0,0,32.77-23.34A77.23,77.23,0,0,0,329.67,120a44.54,44.54,0,0,0,4.22-13.18,18.23,18.23,0,0,0-.53-8.43,10.63,10.63,0,0,0-7.93-7.08,27.44,27.44,0,0,0-14.08.33,57,57,0,0,0-13.42,5.77,126.25,126.25,0,0,0-13.12,8.69c-2.91,2.18-5.67,4.55-8.54,6.79-6,4.68-12.06,9.38-18.14,14-7.3,5.54-15,10.48-22.72,15.44l-3.89,2.51a193,193,0,0,1-24.78,14,250.23,250.23,0,0,1-46.12,16.44Q151,177.59,141.16,179a.88.88,0,0,1-1-.52,57.55,57.55,0,0,0-3.69-5.72c-2.3-2.91-5.54-4.47-9.05-5.5a50.34,50.34,0,0,0-11.62-1.88c-6.49-.34-13-.57-19.48-.85a108.15,108.15,0,0,1-21.81-2.76,100.16,100.16,0,0,1-30.27-13.2,89.74,89.74,0,0,1-27-26.83A78.48,78.48,0,0,1,5.53,91.34c-.47-3-.65-6-1-9,0-.25-.07-.49-.11-.74Z" transform="translate(-4.44 -5.6)"/></svg>